<?xml version="1.0" encoding="UTF-8" standalone="no"?>
<svg width="103px" height="103px" viewBox="0 0 103 103" version="1.1" xmlns="http://www.w3.org/2000/svg" xmlns:xlink="http://www.w3.org/1999/xlink">
    <!-- Generator: Sketch 3.8.3 (29802) - http://www.bohemiancoding.com/sketch -->
    <title>checkout</title>
    <desc>Created with Sketch.</desc>
    <defs>
        <filter x="-50%" y="-50%" width="200%" height="200%" filterUnits="objectBoundingBox" id="filter-1">
            <feOffset dx="0" dy="2" in="SourceAlpha" result="shadowOffsetOuter1"></feOffset>
            <feGaussianBlur stdDeviation="2" in="shadowOffsetOuter1" result="shadowBlurOuter1"></feGaussianBlur>
            <feColorMatrix values="0 0 0 0 0   0 0 0 0 0   0 0 0 0 0  0 0 0 0.5 0" type="matrix" in="shadowBlurOuter1" result="shadowMatrixOuter1"></feColorMatrix>
            <feMerge>
                <feMergeNode in="shadowMatrixOuter1"></feMergeNode>
                <feMergeNode in="SourceGraphic"></feMergeNode>
            </feMerge>
        </filter>
        <linearGradient x1="50%" y1="0%" x2="50%" y2="100%" id="linearGradient-2">
            <stop stop-color="#FFFFFF" stop-opacity="0.5" offset="0%"></stop>
            <stop stop-color="#8B7171" stop-opacity="0.5" offset="58.1961724%"></stop>
            <stop stop-color="#000000" stop-opacity="0.5" offset="100%"></stop>
        </linearGradient>
        <linearGradient x1="50%" y1="0%" x2="50%" y2="100%" id="linearGradient-3">
            <stop stop-color="#FAFAFA" offset="0%"></stop>
            <stop stop-color="#E2E2E2" offset="100%"></stop>
        </linearGradient>
        <linearGradient x1="50%" y1="-7.100596%" x2="50%" y2="100%" id="linearGradient-4">
            <stop stop-color="#F8F8F8" offset="0%"></stop>
            <stop stop-color="#D8D8D8" offset="100%"></stop>
        </linearGradient>
        <path d="M44.3987342,89 C68.919478,89 88.7974684,69.0766714 88.7974684,44.5 C88.7974684,19.9233286 68.919478,0 44.3987342,0 C19.8779904,0 0,19.9233286 0,44.5 C0,69.0766714 19.8779904,89 44.3987342,89 Z" id="path-5"></path>
        <mask id="mask-6" maskContentUnits="userSpaceOnUse" maskUnits="objectBoundingBox" x="-3" y="-3" width="94.7974684" height="95">
            <rect x="-3" y="-3" width="94.7974684" height="95" fill="white"></rect>
            <use xlink:href="#path-5" fill="black"></use>
        </mask>
    </defs>
    <g id="Wayfair-Match" stroke="none" stroke-width="1" fill="none" fill-rule="evenodd">
        <g id="Artboard-5" transform="translate(-166.000000, -119.000000)">
            <g id="Buttons" transform="translate(65.000000, 124.000000)">
                <g id="checkout" filter="url(#filter-1)" transform="translate(108.101266, 0.000000)">
                    <g id="Oval-6">
                        <use fill="#FFCF00" fill-rule="evenodd" xlink:href="#path-5"></use>
                        <use fill="url(#linearGradient-2)" fill-rule="evenodd" style="mix-blend-mode: overlay;" xlink:href="#path-5"></use>
                        <use stroke="url(#linearGradient-3)" stroke-width="1" xlink:href="#path-5"></use>
                        <use stroke="url(#linearGradient-4)" mask="url(#mask-6)" stroke-width="6" xlink:href="#path-5"></use>
                    </g>
                    <g id="Cart" transform="translate(17.000000, 25.000000)" stroke-width="3" stroke="#FFFFFF">
                        <g id="Layer_1">
                            <ellipse id="Oval" cx="38.0706411" cy="38.7043747" rx="3.64370297" ry="3.67847558"></ellipse>
                            <ellipse id="Oval" cx="19.8521262" cy="38.7043747" rx="3.64370297" ry="3.67847558"></ellipse>
                            <path d="M7.74286881,6.43733226 L49.9652454,6.43733226 C51.3918572,6.43733226 52.3747209,7.73211267 51.8625995,8.9368182 L43.7632602,27.9894442 C43.1593617,29.4100433 41.6508291,30.3474235 39.9685559,30.3474235 L16.1833342,30.3474235 C14.2339615,30.3474235 12.5589215,29.0955941 12.1907858,27.363619 L7.74286881,6.43733226 L7.74286881,6.43733226 Z" id="Shape"></path>
                            <path d="M7.71805278,6.4422874 L7.02745866,2.95695023 C6.68678149,1.23759717 5.19137655,0 3.4545369,0 L0.156571875,0" id="Shape"></path>
                            <path d="M38.4823723,11.6666667 L39.8488547,11.6666667" id="Shape"></path>
                            <path d="M12.1092574,11.6666667 L34.3833003,11.6666667" id="Shape"></path>
                        </g>
                    </g>
                </g>
            </g>
        </g>
    </g>
</svg>