<?xml version="1.0" encoding="UTF-8" standalone="no"?>
<svg width="103px" height="103px" viewBox="0 0 103 103" version="1.1" xmlns="http://www.w3.org/2000/svg" xmlns:xlink="http://www.w3.org/1999/xlink">
    <!-- Generator: Sketch 3.8.3 (29802) - http://www.bohemiancoding.com/sketch -->
    <title>like</title>
    <desc>Created with Sketch.</desc>
    <defs>
        <filter x="-50%" y="-50%" width="200%" height="200%" filterUnits="objectBoundingBox" id="filter-1">
            <feOffset dx="0" dy="2" in="SourceAlpha" result="shadowOffsetOuter1"></feOffset>
            <feGaussianBlur stdDeviation="2" in="shadowOffsetOuter1" result="shadowBlurOuter1"></feGaussianBlur>
            <feColorMatrix values="0 0 0 0 0   0 0 0 0 0   0 0 0 0 0  0 0 0 0.5 0" type="matrix" in="shadowBlurOuter1" result="shadowMatrixOuter1"></feColorMatrix>
            <feMerge>
                <feMergeNode in="shadowMatrixOuter1"></feMergeNode>
                <feMergeNode in="SourceGraphic"></feMergeNode>
            </feMerge>
        </filter>
        <linearGradient x1="50%" y1="0%" x2="50%" y2="100%" id="linearGradient-2">
            <stop stop-color="#FFFFFF" stop-opacity="0.5" offset="0%"></stop>
            <stop stop-color="#000000" stop-opacity="0.5" offset="100%"></stop>
        </linearGradient>
        <linearGradient x1="50%" y1="0%" x2="50%" y2="100%" id="linearGradient-3">
            <stop stop-color="#FAFAFA" offset="0%"></stop>
            <stop stop-color="#E2E2E2" offset="100%"></stop>
        </linearGradient>
        <linearGradient x1="50%" y1="-7.100596%" x2="50%" y2="100%" id="linearGradient-4">
            <stop stop-color="#F8F8F8" offset="0%"></stop>
            <stop stop-color="#D8D8D8" offset="100%"></stop>
        </linearGradient>
        <path d="M44.3987342,89 C68.919478,89 88.7974684,69.0766714 88.7974684,44.5 C88.7974684,19.9233286 68.919478,0 44.3987342,0 C19.8779904,0 6.39488462e-14,19.9233286 6.39488462e-14,44.5 C6.39488462e-14,69.0766714 19.8779904,89 44.3987342,89 Z" id="path-5"></path>
        <mask id="mask-6" maskContentUnits="userSpaceOnUse" maskUnits="objectBoundingBox" x="-3" y="-3" width="94.7974684" height="95">
            <rect x="-3" y="-3" width="94.7974684" height="95" fill="white"></rect>
            <use xlink:href="#path-5" fill="black"></use>
        </mask>
    </defs>
    <g id="Wayfair-Match" stroke="none" stroke-width="1" fill="none" fill-rule="evenodd">
        <g id="Artboard-5" transform="translate(-274.000000, -119.000000)">
            <g id="Buttons" transform="translate(65.000000, 124.000000)">
                <g id="like" filter="url(#filter-1)" transform="translate(260.500000, 44.500000) scale(-1, 1) translate(-260.500000, -44.500000) translate(216.000000, 0.000000)">
                    <g id="Oval-6">
                        <use fill="#874E88" fill-rule="evenodd" xlink:href="#path-5"></use>
                        <use fill="url(#linearGradient-2)" fill-rule="evenodd" style="mix-blend-mode: overlay;" xlink:href="#path-5"></use>
                        <use stroke="url(#linearGradient-3)" stroke-width="1" xlink:href="#path-5"></use>
                        <use stroke="url(#linearGradient-4)" mask="url(#mask-6)" stroke-width="6" xlink:href="#path-5"></use>
                    </g>
                    <path d="M64.8262033,40.5468593 C63.0243379,38.8087467 60.4790647,38.6093138 58.720035,38.6093138 C57.8163387,38.6093138 56.9416601,38.6716366 56.1167263,38.7325744 C56.0531636,38.7325744 55.9288017,38.6965657 55.8210214,38.659172 C55.6482966,38.6065439 55.4410268,38.5428362 55.206121,38.5303717 C54.368751,38.3489432 53.716542,38.1730545 53.105787,37.6897068 C51.8594046,36.5775917 50.7664019,35.1912565 49.7079441,33.8520095 L48.9479548,32.8991637 C47.5633926,31.2219889 45.8665438,28.9977587 45.0195012,26.6059495 C44.5731802,25.4107374 44.3907828,24.1448928 44.4543456,22.6145227 C44.4626364,22.3222982 44.4819815,22.0411533 44.4957995,21.7669331 C44.5593623,20.654818 44.6201614,19.6050257 44.2581302,18.5247644 C43.7468646,16.919607 42.4866643,16 40.7994881,16 C39.6636496,16 38.4711573,16.4321045 37.5646974,17.1536636 C35.2916386,18.7380468 33.8310774,21.740619 33.6514436,25.1946851 C33.5588631,27.1308457 34.1475093,28.7955559 34.7168103,30.4034832 C35.2128761,31.8064379 35.6826876,33.1276805 35.6771604,34.5583342 C35.6716332,36.7271664 33.8020596,37.3310047 31.157297,37.9459226 C30.8685011,38.0137852 30.5824687,38.0802628 30.3586173,38.1384307 C30.0560034,38.1938287 29.7478623,38.2450719 29.4355758,38.2977 C27.451313,38.6273182 25.2045083,39.0054096 23.5767495,40.5593239 C22.3483305,41.782235 21.7638296,43.8001076 22.0885523,45.7016444 C22.3220763,47.0727452 22.996394,48.2014797 23.9705621,48.8717956 C23.3570435,51.204052 24.4970274,53.9213245 26.7079053,55.3713675 C26.4964901,56.4266996 26.6940873,57.6191418 27.2799699,58.7340268 C27.9377061,59.9804821 28.9782005,60.9554871 30.141675,61.4194455 C30.1444386,63.5564238 31.5994726,65.417797 33.8904947,66.0659538 C34.5275039,66.1961391 35.2184033,66.2584619 36.0032649,66.2584619 C37.1639758,66.2584619 38.3246867,66.1227367 39.4467072,65.9967063 C39.8225564,65.9537728 40.1942603,65.9122243 40.6267633,65.863751 C41.2886448,65.7280259 41.9795441,65.642159 42.6745889,65.5521372 C44.1075141,65.3679388 45.5846569,65.1782006 46.9236198,64.5992914 C48.0083317,64.1145588 48.9673,63.4151589 49.8889597,62.7406881 C50.1901918,62.5218659 50.4858967,62.3058137 50.7898925,62.0911464 C51.088361,61.877864 51.3909749,61.5967191 51.6977342,61.3044946 C52.2311085,60.8017576 52.7796825,60.2824013 53.311675,60.1799149 C53.785632,60.0885082 54.2360983,60.03865 54.6727467,59.9929467 C55.1619034,59.9389336 55.6330968,59.8876904 56.0973811,59.7907439 L56.3267597,59.7907439 C56.8159164,59.7907439 57.3534361,59.8198279 57.9116828,59.8558366 C58.5459284,59.8932302 59.2064281,59.9347787 59.8600189,59.9347787 C61.4698144,59.9347787 63.4872404,59.7298061 64.787513,58.1246487 C66.7040677,55.8450205 66.9790457,52.3715651 66.9928636,48.9604325 L66.9928636,48.8122428 C67.024645,46.3096376 67.045372,42.5245684 64.8262033,40.5468593 L64.8262033,40.5468593 Z M57.5344518,54.2481728 C57.0370042,56.052763 56.0669816,56.7964813 54.0136287,56.9862195 C53.3766196,56.9862195 52.5931397,56.9862195 51.8552592,57.4404832 C51.0731612,57.6565355 50.4444428,58.2520641 49.8820507,58.7797302 C49.6637265,58.9874727 49.448166,59.1938303 49.2478051,59.3503297 C48.9755908,59.5483776 48.6992311,59.75889 48.4145805,59.9721724 C47.5647744,60.6189442 46.681805,61.2864902 45.8941798,61.6742763 C45.4146956,61.796152 44.8744124,61.9152577 44.3299837,62.0399032 L43.2798167,62.2781147 C41.0786114,62.6755954 38.7972618,62.8847229 36.6499467,63.075846 C35.9286478,63.075846 35.1824765,63.075846 34.4335416,62.8750282 C34.0107112,62.8210152 33.6998065,62.6285071 33.5035911,62.3016588 C33.2327586,61.8529349 33.2078862,61.1840039 33.4262104,60.5995549 C33.6030806,60.1965343 33.5699175,59.75889 33.3377753,59.4015729 C32.9840348,58.8531325 32.2724085,58.6149211 31.726598,58.6149211 L31.6547445,58.6149211 L31.5842728,58.6287706 C31.5193282,58.64539 31.4571473,58.6509298 31.3949663,58.6509298 C30.9486454,58.6509298 30.4898882,58.2769932 30.1665473,57.6579204 C29.7602985,56.8712686 29.7050266,55.9184228 29.9993497,55.496013 C30.3392722,55.0957623 30.3945441,54.5140832 30.1472022,53.9781074 C29.928878,53.5072243 29.5323017,53.1997654 29.0887444,53.1415975 C28.0468682,52.7870502 27.3725504,52.1319687 27.0837545,51.2095918 C26.8709575,50.4312497 26.9276113,49.5407266 27.2854971,49.112777 C27.6268014,48.5449474 27.7055639,47.8815562 27.4969123,47.3525052 C27.3241875,46.9176308 26.9676834,46.6004771 26.4329273,46.4495176 C25.4407959,46.2680891 25.1437092,45.462048 25.0677102,44.8069665 C24.9060398,43.6062146 25.8249359,42.6921474 26.6899419,42.2586579 C28.0150868,41.5149396 29.6373184,41.2490291 31.2084235,40.9914284 C32.0499389,40.8529333 32.9190903,40.7130534 33.7426423,40.499771 C36.5573662,39.7671323 38.5789376,37.5609065 38.7737712,35.009828 C38.9105693,33.1346053 38.3191595,31.4103421 37.7498584,29.7497867 C37.2648471,28.3399073 36.8088535,27.010355 36.7701632,25.6087853 C36.730091,24.2556888 37.12114,22.7627124 37.8714567,21.3362136 C38.589992,20.2116339 39.7990658,19.0011873 40.7594159,19.0011873 C40.8077789,19.0011873 40.8575236,19.0053422 40.8975958,19.0122669 C41.4903874,19.0981338 41.472424,20.2268684 41.4074795,21.2780456 L41.3922797,21.5384163 C41.3052264,23.2654493 41.2679178,24.7196472 41.6589669,26.4037467 C42.2103045,28.6889148 43.5078135,30.5433632 44.7583413,32.3368739 C45.0305556,32.7274299 45.3055335,33.1193708 45.5818933,33.5279311 C46.7591857,35.2272652 48.2570555,37.0761738 49.8861961,38.8489102 C50.1929554,39.2214619 50.5314961,39.6327921 50.9418903,39.9167069 C51.0524342,40.1189097 51.2002867,40.2241659 51.3426119,40.2754091 C52.3554703,41.0551361 53.4388005,41.5080148 54.8136902,41.7323768 C55.809967,41.922115 56.6666822,42.0799993 57.0991852,42.8098681 C57.9655729,44.3485479 57.9918271,46.4675219 58.0097905,48.1599312 L58.0139359,48.5629517 C58.0429537,50.3620022 58.0263721,52.4338878 57.5344518,54.2481728 L57.5344518,54.2481728 Z M63.8907256,48.2915015 L63.887962,48.9562776 C63.9003982,51.566909 63.737346,54.2315534 62.4660912,56.0790771 C62.0391154,56.7341586 61.1851638,56.7826318 60.0230712,56.7826318 L59.8987093,56.7826318 C60.5550636,55.4461548 60.8093146,53.8908556 60.9668396,52.4795912 C61.239054,49.9105084 61.211418,47.3968236 60.8811681,45.0077843 C60.7388429,43.9607618 60.5205187,42.8167929 60.0230712,41.8016243 C60.9654578,41.9054956 61.9327169,42.1658662 62.6705974,42.7960186 C63.9307978,43.8471959 63.9059254,46.5229199 63.8907256,48.2915015 L63.8907256,48.2915015 Z" id="Shape" fill="#FFFFFF"></path>
                </g>
            </g>
        </g>
    </g>
</svg>